<mxfile host="app.diagrams.net" modified="2022-11-13T16:51:32.456Z" agent="5.0 (Windows NT 10.0; Win64; x64) AppleWebKit/537.36 (KHTML, like Gecko) Chrome/107.0.0.0 Safari/537.36" etag="9GCW3hZIWJOlWZWy1SvA" version="20.5.3" type="github">
  <diagram id="-OAZFYtnNw-1e6DbJDEI" name="PÃ¡gina-1">
    <mxGraphModel dx="1108" dy="482" grid="1" gridSize="10" guides="1" tooltips="1" connect="1" arrows="1" fold="1" page="1" pageScale="1" pageWidth="827" pageHeight="1169" math="0" shadow="0">
      <root>
        <mxCell id="0" />
        <mxCell id="1" parent="0" />
        <mxCell id="XboItoCEbunj6H5Xzpf8-1" value="" style="rounded=0;whiteSpace=wrap;html=1;" vertex="1" parent="1">
          <mxGeometry width="670" height="510" as="geometry" />
        </mxCell>
        <mxCell id="XboItoCEbunj6H5Xzpf8-2" value="" style="sketch=0;aspect=fixed;html=1;points=[];align=center;image;fontSize=12;image=img/lib/mscae/Key.svg;" vertex="1" parent="1">
          <mxGeometry x="40" y="20" width="31" height="50" as="geometry" />
        </mxCell>
        <mxCell id="XboItoCEbunj6H5Xzpf8-3" value="" style="rounded=0;whiteSpace=wrap;html=1;" vertex="1" parent="1">
          <mxGeometry x="30" y="90" width="440" height="360" as="geometry" />
        </mxCell>
        <mxCell id="XboItoCEbunj6H5Xzpf8-4" value="rg-local" style="text;html=1;strokeColor=none;fillColor=none;align=center;verticalAlign=middle;whiteSpace=wrap;rounded=0;" vertex="1" parent="1">
          <mxGeometry x="120" y="105" width="60" height="30" as="geometry" />
        </mxCell>
        <mxCell id="XboItoCEbunj6H5Xzpf8-5" value="" style="sketch=0;aspect=fixed;html=1;points=[];align=center;image;fontSize=12;image=img/lib/mscae/ResourceGroup.svg;" vertex="1" parent="1">
          <mxGeometry x="60" y="100" width="50" height="40" as="geometry" />
        </mxCell>
        <mxCell id="XboItoCEbunj6H5Xzpf8-7" value="Subscription Trial" style="text;html=1;strokeColor=none;fillColor=none;align=center;verticalAlign=middle;whiteSpace=wrap;rounded=0;" vertex="1" parent="1">
          <mxGeometry x="71" y="30" width="109" height="30" as="geometry" />
        </mxCell>
        <mxCell id="XboItoCEbunj6H5Xzpf8-8" value="" style="rounded=1;whiteSpace=wrap;html=1;strokeColor=#FF3333;" vertex="1" parent="1">
          <mxGeometry x="48" y="160" width="180" height="270" as="geometry" />
        </mxCell>
        <mxCell id="XboItoCEbunj6H5Xzpf8-10" value="" style="sketch=0;aspect=fixed;html=1;points=[];align=center;image;fontSize=12;image=img/lib/mscae/Virtual_Network.svg;dashed=1;strokeColor=#FF3333;" vertex="1" parent="1">
          <mxGeometry x="90" y="399" width="50" height="28.000000000000004" as="geometry" />
        </mxCell>
        <mxCell id="XboItoCEbunj6H5Xzpf8-25" value="" style="edgeStyle=orthogonalEdgeStyle;rounded=0;orthogonalLoop=1;jettySize=auto;html=1;startArrow=none;" edge="1" parent="1" source="XboItoCEbunj6H5Xzpf8-26" target="XboItoCEbunj6H5Xzpf8-18">
          <mxGeometry relative="1" as="geometry" />
        </mxCell>
        <mxCell id="XboItoCEbunj6H5Xzpf8-11" value="vnet-local01" style="text;html=1;strokeColor=none;fillColor=none;align=center;verticalAlign=middle;whiteSpace=wrap;rounded=0;dashed=1;" vertex="1" parent="1">
          <mxGeometry x="140" y="400" width="80" height="30" as="geometry" />
        </mxCell>
        <mxCell id="XboItoCEbunj6H5Xzpf8-12" value="10.1.0.0/24" style="text;html=1;strokeColor=none;fillColor=none;align=center;verticalAlign=middle;whiteSpace=wrap;rounded=0;dashed=1;" vertex="1" parent="1">
          <mxGeometry x="110" y="427" width="60" height="30" as="geometry" />
        </mxCell>
        <mxCell id="XboItoCEbunj6H5Xzpf8-13" value="" style="rounded=1;whiteSpace=wrap;html=1;strokeColor=#0000FF;" vertex="1" parent="1">
          <mxGeometry x="68" y="190" width="130" height="190" as="geometry" />
        </mxCell>
        <mxCell id="XboItoCEbunj6H5Xzpf8-14" value="NSG01" style="text;html=1;strokeColor=none;fillColor=none;align=center;verticalAlign=middle;whiteSpace=wrap;rounded=0;dashed=1;" vertex="1" parent="1">
          <mxGeometry x="80" y="160" width="60" height="30" as="geometry" />
        </mxCell>
        <mxCell id="XboItoCEbunj6H5Xzpf8-17" value="" style="rounded=1;whiteSpace=wrap;html=1;strokeColor=#FF3333;" vertex="1" parent="1">
          <mxGeometry x="280" y="160" width="180" height="270" as="geometry" />
        </mxCell>
        <mxCell id="XboItoCEbunj6H5Xzpf8-18" value="" style="rounded=1;whiteSpace=wrap;html=1;strokeColor=#0000FF;" vertex="1" parent="1">
          <mxGeometry x="300" y="190" width="130" height="190" as="geometry" />
        </mxCell>
        <mxCell id="XboItoCEbunj6H5Xzpf8-20" value="" style="verticalLabelPosition=bottom;html=1;verticalAlign=top;align=center;strokeColor=none;fillColor=#00BEF2;shape=mxgraph.azure.virtual_machine_feature;pointerEvents=1;dashed=1;" vertex="1" parent="1">
          <mxGeometry x="100.5" y="222.5" width="50" height="45" as="geometry" />
        </mxCell>
        <mxCell id="XboItoCEbunj6H5Xzpf8-21" value="" style="verticalLabelPosition=bottom;html=1;verticalAlign=top;align=center;strokeColor=none;fillColor=#00BEF2;shape=mxgraph.azure.virtual_machine_feature;pointerEvents=1;dashed=1;" vertex="1" parent="1">
          <mxGeometry x="100.5" y="300" width="50" height="45" as="geometry" />
        </mxCell>
        <mxCell id="XboItoCEbunj6H5Xzpf8-22" value="" style="verticalLabelPosition=bottom;html=1;verticalAlign=top;align=center;strokeColor=none;fillColor=#00BEF2;shape=mxgraph.azure.virtual_machine_feature;pointerEvents=1;dashed=1;" vertex="1" parent="1">
          <mxGeometry x="340" y="250" width="50" height="45" as="geometry" />
        </mxCell>
        <mxCell id="XboItoCEbunj6H5Xzpf8-23" value="" style="endArrow=classic;startArrow=classic;html=1;rounded=0;exitX=1;exitY=0.5;exitDx=0;exitDy=0;" edge="1" parent="1" source="XboItoCEbunj6H5Xzpf8-13" target="XboItoCEbunj6H5Xzpf8-18">
          <mxGeometry width="50" height="50" relative="1" as="geometry">
            <mxPoint x="170" y="260" as="sourcePoint" />
            <mxPoint x="220" y="210" as="targetPoint" />
          </mxGeometry>
        </mxCell>
        <mxCell id="XboItoCEbunj6H5Xzpf8-24" value="vnet-02" style="text;html=1;strokeColor=none;fillColor=none;align=center;verticalAlign=middle;whiteSpace=wrap;rounded=0;dashed=1;" vertex="1" parent="1">
          <mxGeometry x="340" y="399" width="60" height="30" as="geometry" />
        </mxCell>
        <mxCell id="XboItoCEbunj6H5Xzpf8-26" value="" style="sketch=0;aspect=fixed;html=1;points=[];align=center;image;fontSize=12;image=img/lib/mscae/Virtual_Network.svg;dashed=1;strokeColor=#FF3333;" vertex="1" parent="1">
          <mxGeometry x="290" y="399" width="50" height="28.000000000000004" as="geometry" />
        </mxCell>
        <mxCell id="XboItoCEbunj6H5Xzpf8-28" value="" style="rounded=1;whiteSpace=wrap;html=1;strokeColor=#0000FF;" vertex="1" parent="1">
          <mxGeometry x="490" y="90" width="140" height="360" as="geometry" />
        </mxCell>
        <mxCell id="XboItoCEbunj6H5Xzpf8-29" value="Azure Services" style="text;html=1;strokeColor=none;fillColor=none;align=center;verticalAlign=middle;whiteSpace=wrap;rounded=0;dashed=1;" vertex="1" parent="1">
          <mxGeometry x="510" y="100" width="60" height="30" as="geometry" />
        </mxCell>
        <mxCell id="XboItoCEbunj6H5Xzpf8-30" value="" style="verticalLabelPosition=bottom;html=1;verticalAlign=top;align=center;strokeColor=none;fillColor=#00BEF2;shape=mxgraph.azure.sql_database;dashed=1;" vertex="1" parent="1">
          <mxGeometry x="498.5" y="142.5" width="37.5" height="50" as="geometry" />
        </mxCell>
        <mxCell id="XboItoCEbunj6H5Xzpf8-31" value="" style="aspect=fixed;html=1;points=[];align=center;image;fontSize=12;image=img/lib/azure2/storage/Storage_Accounts.svg;dashed=1;strokeColor=#0000FF;" vertex="1" parent="1">
          <mxGeometry x="562.5" y="142.5" width="65" height="52" as="geometry" />
        </mxCell>
        <mxCell id="XboItoCEbunj6H5Xzpf8-32" value="" style="sketch=0;aspect=fixed;html=1;points=[];align=center;image;fontSize=12;image=img/lib/mscae/Key_Vaults.svg;dashed=1;strokeColor=#0000FF;" vertex="1" parent="1">
          <mxGeometry x="536" y="217.5" width="48" height="50" as="geometry" />
        </mxCell>
        <mxCell id="XboItoCEbunj6H5Xzpf8-34" value="" style="aspect=fixed;html=1;points=[];align=center;image;fontSize=12;image=img/lib/azure2/identity/Azure_Active_Directory.svg;strokeColor=#0000FF;" vertex="1" parent="1">
          <mxGeometry x="210" y="20" width="54.69" height="50" as="geometry" />
        </mxCell>
        <mxCell id="XboItoCEbunj6H5Xzpf8-35" value="tftecstorerhsm.ml" style="text;html=1;strokeColor=none;fillColor=none;align=center;verticalAlign=middle;whiteSpace=wrap;rounded=0;" vertex="1" parent="1">
          <mxGeometry x="264.69" y="30" width="115.31" height="30" as="geometry" />
        </mxCell>
        <mxCell id="XboItoCEbunj6H5Xzpf8-36" value="" style="sketch=0;aspect=fixed;html=1;points=[];align=center;image;fontSize=12;image=img/lib/mscae/Azure_Repos.svg;strokeColor=#0000FF;" vertex="1" parent="1">
          <mxGeometry x="510" y="320" width="45" height="50" as="geometry" />
        </mxCell>
        <mxCell id="XboItoCEbunj6H5Xzpf8-37" value="" style="sketch=0;aspect=fixed;html=1;points=[];align=center;image;fontSize=12;image=img/lib/mscae/Azure_Pipelines.svg;strokeColor=#0000FF;" vertex="1" parent="1">
          <mxGeometry x="534" y="390" width="50" height="50" as="geometry" />
        </mxCell>
        <mxCell id="XboItoCEbunj6H5Xzpf8-38" value="" style="sketch=0;aspect=fixed;html=1;points=[];align=center;image;fontSize=12;image=img/lib/mscae/Azure_Boards.svg;strokeColor=#0000FF;" vertex="1" parent="1">
          <mxGeometry x="570" y="320" width="50" height="50" as="geometry" />
        </mxCell>
        <mxCell id="XboItoCEbunj6H5Xzpf8-39" value="Azure Devops" style="text;html=1;strokeColor=none;fillColor=none;align=center;verticalAlign=middle;whiteSpace=wrap;rounded=0;" vertex="1" parent="1">
          <mxGeometry x="524" y="280" width="60" height="30" as="geometry" />
        </mxCell>
        <mxCell id="XboItoCEbunj6H5Xzpf8-40" value="" style="sketch=0;aspect=fixed;html=1;points=[];align=center;image;fontSize=12;image=img/lib/mscae/Certificate.svg;strokeColor=#0000FF;" vertex="1" parent="1">
          <mxGeometry x="387" y="234" width="26.19" height="22" as="geometry" />
        </mxCell>
        <mxCell id="XboItoCEbunj6H5Xzpf8-41" value="10.2.0.0/24" style="text;html=1;strokeColor=none;fillColor=none;align=center;verticalAlign=middle;whiteSpace=wrap;rounded=0;dashed=1;" vertex="1" parent="1">
          <mxGeometry x="330" y="427" width="60" height="30" as="geometry" />
        </mxCell>
        <mxCell id="XboItoCEbunj6H5Xzpf8-42" value="" style="aspect=fixed;html=1;points=[];align=center;image;fontSize=12;image=img/lib/azure2/intune/Azure_AD_Roles_and_Administrators.svg;strokeColor=#0000FF;" vertex="1" parent="1">
          <mxGeometry x="400" y="16" width="54" height="54" as="geometry" />
        </mxCell>
        <mxCell id="XboItoCEbunj6H5Xzpf8-43" value="" style="outlineConnect=0;dashed=0;verticalLabelPosition=bottom;verticalAlign=top;align=center;html=1;shape=mxgraph.aws3.mfa_token;fillColor=#7D7C7C;gradientColor=none;strokeColor=#0000FF;" vertex="1" parent="1">
          <mxGeometry x="375" y="63" width="25" height="27" as="geometry" />
        </mxCell>
        <mxCell id="XboItoCEbunj6H5Xzpf8-45" value="Text" style="text;html=1;strokeColor=none;fillColor=none;align=center;verticalAlign=middle;whiteSpace=wrap;rounded=0;" vertex="1" parent="1">
          <mxGeometry x="280" y="50" width="60" height="30" as="geometry" />
        </mxCell>
        <mxCell id="XboItoCEbunj6H5Xzpf8-46" value="Admin-user" style="text;html=1;strokeColor=none;fillColor=none;align=center;verticalAlign=middle;whiteSpace=wrap;rounded=0;" vertex="1" parent="1">
          <mxGeometry x="454" y="30" width="96" height="30" as="geometry" />
        </mxCell>
        <mxCell id="XboItoCEbunj6H5Xzpf8-47" value="db-store" style="text;html=1;strokeColor=none;fillColor=none;align=center;verticalAlign=middle;whiteSpace=wrap;rounded=0;" vertex="1" parent="1">
          <mxGeometry x="480" y="192.5" width="96" height="30" as="geometry" />
        </mxCell>
        <mxCell id="XboItoCEbunj6H5Xzpf8-48" value="sto-images" style="text;html=1;strokeColor=none;fillColor=none;align=center;verticalAlign=middle;whiteSpace=wrap;rounded=0;" vertex="1" parent="1">
          <mxGeometry x="550" y="190" width="96" height="30" as="geometry" />
        </mxCell>
      </root>
    </mxGraphModel>
  </diagram>
</mxfile>
